<?xml version="1.0" encoding="utf-8"?><svg xmlns="http://www.w3.org/2000/svg" xmlns:xlink="http://www.w3.org/1999/xlink" width="1536" height="754" preserveAspectRatio="xMidYMid" viewBox="0 0 1536 754" style="z-index:1;margin-right:-2px;display:block;background-repeat-y:initial;background-repeat-x:initial;background-color:rgb(255, 255, 255);animation-play-state:paused" ><g transform="translate(768,377) scale(1,1) translate(-768,-377)" style="transform:matrix(1, 0, 0, 1, 0, 0);animation-play-state:paused" ><path id="path0" d="M 566.7202139169007 333.3711476051532
c 0 19.565916741177045 -4.787405160075234 5.619997361827449 -10.407402521902682 5.619997361827449
S 545.9054088730953 352.93706434633026 545.9054088730953 333.3711476051532
s 4.787405160075234 -5.619997361827449 10.407402521902682 -5.619997361827449
S 566.7202139169007 313.8052308639762 566.7202139169007 333.3711476051532
z" fill="none" stroke="none" style="animation-play-state:paused" ></path>


<circle cx="0" cy="0" r="7.565036015541842" fill="#51cacc" opacity="0.9" transform="translate(566.298095703125 340.8392639160156)" style="opacity:0.9;animation-play-state:paused" ></circle>
<path id="path1" d="M 441.6931709612238 585.0357403637827
c 0 35.61108509673831 -8.713350608776393 10.228715932041855 -18.942066540818246 10.228715932041855
S 403.8090378795873 620.646825460521 403.8090378795873 585.0357403637827
s 8.713350608776393 -10.228715932041855 18.942066540818246 -10.228715932041855
S 441.6931709612238 549.4246552670444 441.6931709612238 585.0357403637827
z" fill="none" stroke="none" style="animation-play-state:paused" ></path>


<circle cx="0" cy="0" r="6.853567900374641" fill="#9df871" opacity="0.9" transform="translate(410.27862548828125 567.0883178710938)" style="opacity:0.9;animation-play-state:paused" ></circle>
<path id="path2" d="M 499.5057917028032 645.9372894672167
c 0 31.62736227240711 -7.738609917716633 9.084455120797788 -16.82306503851442 9.084455120797788
S 465.8596616257744 677.5646517396239 465.8596616257744 645.9372894672167
s 7.738609917716633 -9.084455120797788 16.82306503851442 -9.084455120797788
S 499.5057917028032 614.3099271948096 499.5057917028032 645.9372894672167
z" fill="none" stroke="none" style="animation-play-state:paused" ></path>


<circle cx="0" cy="0" r="5.012754413587434" fill="#de9dd6" opacity="0.9" transform="translate(489.3985900878906 633.6166381835938)" style="opacity:0.9;animation-play-state:paused" ></circle>
<path id="path3" d="M 231.6622266015771 375.5271904360277
c 0 25.338784278649136 -6.19991530222266 7.278161441739646 -13.478076743962307 7.278161441739646
S 204.70607311365248 400.86597471467684 204.70607311365248 375.5271904360277
s 6.19991530222266 -7.278161441739646 13.478076743962307 -7.278161441739646
S 231.6622266015771 350.18840615737855 231.6622266015771 375.5271904360277
z" fill="none" stroke="none" style="animation-play-state:paused" ></path>


<circle cx="0" cy="0" r="4.654649817304754" fill="#e0ff77" opacity="0.9" transform="translate(231.40431213378906 368.1868591308594)" style="opacity:0.9;animation-play-state:paused" ></circle>
<path id="path4" d="M 1163.8968156828805 547.4917758009581
c 0 20.167752122825362 -4.9346627534572685 5.792864971449838 -10.727527724907107 5.792864971449838
S 1142.4417602330664 567.6595279237835 1142.4417602330664 547.4917758009581
s 4.9346627534572685 -5.792864971449838 10.727527724907107 -5.792864971449838
S 1163.8968156828805 527.3240236781327 1163.8968156828805 547.4917758009581
z" fill="none" stroke="none" style="animation-play-state:paused" ></path>


<circle cx="0" cy="0" r="5.606176236692784" fill="#ff708e" opacity="0.9" transform="translate(1144.3818359375 536.7725219726562)" style="opacity:0.9;animation-play-state:paused" ></circle>
<path id="path5" d="M 1099.484802609064 394.3747723810832
c 0 20.01699294009345 -4.897774868320737 5.749561801941736 -10.647336670262472 5.749561801941736
S 1078.1901292685388 414.39176532117665 1078.1901292685388 394.3747723810832
s 4.897774868320737 -5.749561801941736 10.647336670262472 -5.749561801941736
S 1099.484802609064 374.3577794409897 1099.484802609064 394.3747723810832
z" fill="none" stroke="none" style="animation-play-state:paused" ></path>


<circle cx="0" cy="0" r="6.608685245583094" fill="#ff708e" opacity="0.9" transform="translate(1078.3231201171875 399.2469482421875)" style="opacity:0.9;animation-play-state:paused" ></circle>
<path id="path6" d="M 1178.2563918977999 578.4247677123451
c 0 21.61006517320657 -5.287569138125011 6.207146379538059 -11.49471551766307 6.207146379538059
S 1155.2669608624738 600.0348328855516 1155.2669608624738 578.4247677123451
s 5.287569138125011 -6.207146379538059 11.49471551766307 -6.207146379538059
S 1178.2563918977999 556.8147025391386 1178.2563918977999 578.4247677123451
z" fill="none" stroke="none" style="animation-play-state:paused" ></path>


<circle cx="0" cy="0" r="4.807235927375516" fill="#ff708e" opacity="0.9" transform="translate(1155.26806640625 578.1544189453125)" style="opacity:0.9;animation-play-state:paused" ></circle>
<path id="path7" d="M 1342.4471332602077 278.776277521624
c 0 26.34947384029206 -6.4472116843267795 7.568465890296656 -14.015677574623435 7.568465890296656
S 1314.415778110961 305.12575136191606 1314.415778110961 278.776277521624
s 6.4472116843267795 -7.568465890296656 14.015677574623435 -7.568465890296656
S 1342.4471332602077 252.42680368133196 1342.4471332602077 278.776277521624
z" fill="none" stroke="none" style="animation-play-state:paused" ></path>


<circle cx="0" cy="0" r="7.998062249490581" fill="#51cacc" opacity="0.9" transform="translate(1328.985595703125 271.1748352050781)" style="opacity:0.9;animation-play-state:paused" ></circle>
<path id="path8" d="M 994.2071702975503 663.4755831668249
c 0 25.657908744395716 -6.277998948096823 7.369824852113663 -13.647823800210485 7.369824852113663
S 966.9115226971293 689.1334919112206 966.9115226971293 663.4755831668249
s 6.277998948096823 -7.369824852113663 13.647823800210485 -7.369824852113663
S 994.2071702975503 637.8176744224291 994.2071702975503 663.4755831668249
z" fill="none" stroke="none" style="animation-play-state:paused" ></path>


<circle cx="0" cy="0" r="6.834280469575147" fill="#51cacc" opacity="0.9" transform="translate(983.4368286132812 671.6734619140625)" style="opacity:0.9;animation-play-state:paused" ></circle>
<path id="path9" d="M 1370.4300098417257 598.614774960413
c 0 35.134308560579875 -8.596692520141882 10.09176948016656 -18.688462000308444 10.09176948016656
S 1333.053085841109 633.7490835209928 1333.053085841109 598.614774960413
s 8.596692520141882 -10.09176948016656 18.688462000308444 -10.09176948016656
S 1370.4300098417257 563.4804663998332 1370.4300098417257 598.614774960413
z" fill="none" stroke="none" style="animation-play-state:paused" ></path>


<circle cx="0" cy="0" r="5.970867698989117" fill="#e0ff77" opacity="0.9" transform="translate(1334.866455078125 581.48828125)" style="opacity:0.9;animation-play-state:paused" ></circle>
<path id="path10" d="M 100.38621192428717 582.5597489349263
c 0 34.613529927534316 -8.469267960992438 9.942184128121559 -18.411452089113997 9.942184128121559
S 63.56330774605918 617.1732788624606 63.56330774605918 582.5597489349263
s 8.469267960992438 -9.942184128121559 18.411452089113997 -9.942184128121559
S 100.38621192428717 547.9462190073921 100.38621192428717 582.5597489349263
z" fill="none" stroke="none" style="animation-play-state:paused" ></path>


<circle cx="0" cy="0" r="6.445160474995686" fill="#de9dd6" opacity="0.9" transform="translate(63.79387283325195 590.9963989257812)" style="opacity:0.9;animation-play-state:paused" ></circle>
<path id="path11" d="M 1217.390673406949 129.10569983046258
c 0 31.22059998909589 -7.639082976055376 8.96761914580414 -16.606702121859517 8.96761914580414
S 1184.1772691632298 160.32629981955847 1184.1772691632298 129.10569983046258
s 7.639082976055376 -8.96761914580414 16.606702121859517 -8.96761914580414
S 1217.390673406949 97.8850998413667 1217.390673406949 129.10569983046258
z" fill="none" stroke="none" style="animation-play-state:paused" ></path>


<circle cx="0" cy="0" r="4.160038513920549" fill="#de9dd6" opacity="0.9" transform="translate(1189.9259033203125 144.78648376464844)" style="opacity:0.9;animation-play-state:paused" ></circle>
<path id="path12" d="M 736.9369888188542 564.6685341250886
c 0 29.217136577538536 -7.148873843440279 8.39215625099511 -15.54103009443539 8.39215625099511
S 705.8549286299833 593.8856707026272 705.8549286299833 564.6685341250886
s 7.148873843440279 -8.39215625099511 15.54103009443539 -8.39215625099511
S 736.9369888188542 535.4513975475501 736.9369888188542 564.6685341250886
z" fill="none" stroke="none" style="animation-play-state:paused" ></path>


<circle cx="0" cy="0" r="5.595753825612101" fill="#de9dd6" opacity="0.9" transform="translate(718.955810546875 555.7368774414062)" style="opacity:0.9;animation-play-state:paused" ></circle>
<path id="path13" d="M 1160.5408670514935 12.748254585201838
c 0 34.12137831331358 -8.34884788517247 9.800821430419857 -18.149669315592327 9.800821430419857
S 1124.241528420309 46.86963289851542 1124.241528420309 12.748254585201838
s 8.34884788517247 -9.800821430419857 18.149669315592327 -9.800821430419857
S 1160.5408670514935 -21.37312372811174 1160.5408670514935 12.748254585201838
z" fill="none" stroke="none" style="animation-play-state:paused" ></path>


<circle cx="0" cy="0" r="6.782567010921814" fill="#51cacc" opacity="0.9" transform="translate(1160.5352783203125 11.276576042175293)" style="opacity:0.9;animation-play-state:paused" ></circle>
<path id="path14" d="M 616.848897716818 611.6423099433497
c 0 37.03396505857732 -9.061502088800832 10.637415495548805 -19.698917584349637 10.637415495548805
S 577.4510625481188 648.676275001927 577.4510625481188 611.6423099433497
s 9.061502088800832 -10.637415495548805 19.698917584349637 -10.637415495548805
S 616.848897716818 574.6083448847724 616.848897716818 611.6423099433497
z" fill="none" stroke="none" style="animation-play-state:paused" ></path>


<circle cx="0" cy="0" r="4.504954699582731" fill="#ff708e" opacity="0.9" transform="translate(610.6455078125 592.635009765625)" style="opacity:0.9;animation-play-state:paused" ></circle>
<path id="path15" d="M 890.5516059687301 129.9901069349413
c 0 21.519913061341466 -5.265510642668655 6.181251624002336 -11.44676226667099 6.181251624002336
S 867.658081435388 151.51001999628278 867.658081435388 129.9901069349413
s 5.265510642668655 -6.181251624002336 11.44676226667099 -6.181251624002336
S 890.5516059687301 108.47019387359984 890.5516059687301 129.9901069349413
z" fill="none" stroke="none" style="animation-play-state:paused" ></path>


<circle cx="0" cy="0" r="5.0216142403516555" fill="#ff708e" opacity="0.9" transform="translate(890.55126953125 129.80723571777344)" style="opacity:0.9;animation-play-state:paused" ></circle>
<path id="path16" d="M 48.14348643725521 512.3145686647022
c 0 35.190715709778374 -8.610494269413856 10.107971533659745 -18.7184658030736 10.107971533659745
S 10.706554831108015 547.5052843744805 10.706554831108015 512.3145686647022
s 8.610494269413856 -10.107971533659745 18.7184658030736 -10.107971533659745
S 48.14348643725521 477.1238529549238 48.14348643725521 512.3145686647022
z" fill="none" stroke="none" style="animation-play-state:paused" ></path>


<circle cx="0" cy="0" r="6.550790539419178" fill="#de9dd6" opacity="0.9" transform="translate(26.13050651550293 523.230224609375)" style="opacity:0.9;animation-play-state:paused" ></circle>
<path id="path17" d="M 156.97746442794113 24.681854438886035
c 0 34.50612983998693 -8.442989216167014 9.911335166804758 -18.35432438297177 9.911335166804758
S 120.26881566199758 59.18798427887297 120.26881566199758 24.681854438886035
s 8.442989216167014 -9.911335166804758 18.35432438297177 -9.911335166804758
S 156.97746442794113 -9.824275401100898 156.97746442794113 24.681854438886035
z" fill="none" stroke="none" style="animation-play-state:paused" ></path>


<circle cx="0" cy="0" r="6.244084344311677" fill="#9df871" opacity="0.9" transform="translate(120.3476333618164 19.41081428527832)" style="opacity:0.9;animation-play-state:paused" ></circle>
<path id="path18" d="M 962.7190310829383 76.08223348859849
c 0 32.17220082221249 -7.871921477775395 9.240951299997203 -17.112872777772598 9.240951299997203
S 928.493285527393 108.25443431081098 928.493285527393 76.08223348859849
s 7.871921477775395 -9.240951299997203 17.112872777772598 -9.240951299997203
S 962.7190310829383 43.910032666386 962.7190310829383 76.08223348859849
z" fill="none" stroke="none" style="animation-play-state:paused" ></path>


<circle cx="0" cy="0" r="4.944317596126387" fill="#de9dd6" opacity="0.9" transform="translate(953.0947875976562 89.16600799560547)" style="opacity:0.9;animation-play-state:paused" ></circle>
<path id="path19" d="M 506.8549461543634 282.1737621484754
c 0 31.07980866276142 -7.604634034505453 8.927179083984663 -16.531813118490113 8.927179083984663
S 473.7913199173832 313.25357081123684 473.7913199173832 282.1737621484754
s 7.604634034505453 -8.927179083984663 16.531813118490113 -8.927179083984663
S 506.8549461543634 251.093953485714 506.8549461543634 282.1737621484754
z" fill="none" stroke="none" style="animation-play-state:paused" ></path>


<circle cx="0" cy="0" r="7.344234824296164" fill="#ff708e" opacity="0.9" transform="translate(477.899169921875 265.70294189453125)" style="opacity:0.9;animation-play-state:paused" ></circle>
<path id="path20" d="M 106.5522691402238 607.1643486825957
c 0 22.003607472577837 -5.383861402864789 6.320185125102145 -11.704046527966934 6.320185125102145
S 83.14417608428992 629.1679561551736 83.14417608428992 607.1643486825957
s 5.383861402864789 -6.320185125102145 11.704046527966934 -6.320185125102145
S 106.5522691402238 585.1607412100178 106.5522691402238 607.1643486825957
z" fill="none" stroke="none" style="animation-play-state:paused" ></path>


<circle cx="0" cy="0" r="7.104615508402561" fill="#9df871" opacity="0.9" transform="translate(93.51400756835938 600.6248779296875)" style="opacity:0.9;animation-play-state:paused" ></circle>
<path id="path21" d="M 1384.6261907072844 692.7741064283344
c 0 31.683798391780226 -7.752418755435587 9.100665495511342 -16.853084250946928 9.100665495511342
S 1350.9200222053905 724.4579048201147 1350.9200222053905 692.7741064283344
s 7.752418755435587 -9.100665495511342 16.853084250946928 -9.100665495511342
S 1384.6261907072844 661.0903080365542 1384.6261907072844 692.7741064283344
z" fill="none" stroke="none" style="animation-play-state:paused" ></path>


<circle cx="0" cy="0" r="4.4807898847401395" fill="#ff708e" opacity="0.9" transform="translate(1383.7625732421875 679.7327270507812)" style="opacity:0.9;animation-play-state:paused" ></circle>
<path id="path22" d="M 279.17032471536106 154.44141987657702
c 0 32.12140276477844 -7.859492165850042 9.226360368606572 -17.085852534456613 9.226360368606572
S 244.99861964644785 186.56282264135547 244.99861964644785 154.44141987657702
s 7.859492165850042 -9.226360368606572 17.085852534456613 -9.226360368606572
S 279.17032471536106 122.32001711179858 279.17032471536106 154.44141987657702
z" fill="none" stroke="none" style="animation-play-state:paused" ></path>


<circle cx="0" cy="0" r="4.067204176912409" fill="#9df871" opacity="0.9" transform="translate(279.1360778808594 157.88726806640625)" style="opacity:0.9;animation-play-state:paused" ></circle>
<path id="path23" d="M 817.1530454939684 148.8335553901507
c 0 25.400412798116786 -6.2149946208158084 7.295863250522906 -13.510857871338715 7.295863250522906
S 790.1313297512909 174.23396818826748 790.1313297512909 148.8335553901507
s 6.2149946208158084 -7.295863250522906 13.510857871338715 -7.295863250522906
S 817.1530454939684 123.43314259203392 817.1530454939684 148.8335553901507
z" fill="none" stroke="none" style="animation-play-state:paused" ></path>


<circle cx="0" cy="0" r="4.787944721028846" fill="#e0ff77" opacity="0.9" transform="translate(813.15380859375 162.01759338378906)" style="opacity:0.9;animation-play-state:paused" ></circle>
<path id="path24" d="M 289.5273895085946 543.9675591603706
c 0 23.218467301280494 -5.681114339675014 6.669134224835887 -12.350248564510903 6.669134224835887
S 264.8268923795728 567.1860264616511 264.8268923795728 543.9675591603706
s 5.681114339675014 -6.669134224835887 12.350248564510903 -6.669134224835887
S 289.5273895085946 520.7490918590901 289.5273895085946 543.9675591603706
z" fill="none" stroke="none" style="animation-play-state:paused" ></path>


<circle cx="0" cy="0" r="6.071675142828965" fill="#de9dd6" opacity="0.9" transform="translate(289.4145812988281 539.01806640625)" style="opacity:0.9;animation-play-state:paused" ></circle>
<path id="path25" d="M 1036.3032551332788 554.141350733184
c 0 30.329798082800572 -7.4211208074937565 8.711750513144846 -16.132871320638603 8.711750513144846
S 1004.0375124920016 584.4711488159846 1004.0375124920016 554.141350733184
s 7.4211208074937565 -8.711750513144846 16.132871320638603 -8.711750513144846
S 1036.3032551332788 523.8115526503834 1036.3032551332788 554.141350733184
z" fill="none" stroke="none" style="animation-play-state:paused" ></path>


<circle cx="0" cy="0" r="6.5336147342088955" fill="#9df871" opacity="0.9" transform="translate(1004.4303588867188 544.4998168945312)" style="opacity:0.9;animation-play-state:paused" ></circle>
<path id="path26" d="M 730.413740796409 460.16276162895974
c 0 20.582940520362932 -5.036251403918589 5.912121213295737 -10.948372617214325 5.912121213295737
S 708.5169955619804 480.74570214932265 708.5169955619804 460.16276162895974
s 5.036251403918589 -5.912121213295737 10.948372617214325 -5.912121213295737
S 730.413740796409 439.57982110859683 730.413740796409 460.16276162895974
z" fill="none" stroke="none" style="animation-play-state:paused" ></path>


<circle cx="0" cy="0" r="5.130322718987974" fill="#e0ff77" opacity="0.9" transform="translate(729.9374389648438 452.12353515625)" style="opacity:0.9;animation-play-state:paused" ></circle>
<path id="path27" d="M 1296.0602644534922 433.84722256969
c 0 26.278766872157266 -6.429911043187416 7.54815644200262 -13.978067485190035 7.54815644200262
S 1268.1041294831123 460.1259894418473 1268.1041294831123 433.84722256969
s 6.429911043187416 -7.54815644200262 13.978067485190035 -7.54815644200262
S 1296.0602644534922 407.5684556975327 1296.0602644534922 433.84722256969
z" fill="none" stroke="none" style="animation-play-state:paused" ></path>


<circle cx="0" cy="0" r="5.308410242033102" fill="#e0ff77" opacity="0.9" transform="translate(1292.4925537109375 447.74298095703125)" style="opacity:0.9;animation-play-state:paused" ></circle>
<path id="path28" d="M 1491.9738710525328 694.9509074865388
c 0 32.860196756152746 -8.04026090842035 9.438567153363023 -17.478828061783375 9.438567153363023
S 1457.016214928966 727.8111042426915 1457.016214928966 694.9509074865388
s 8.04026090842035 -9.438567153363023 17.478828061783375 -9.438567153363023
S 1491.9738710525328 662.090710730386 1491.9738710525328 694.9509074865388
z" fill="none" stroke="none" style="animation-play-state:paused" ></path>


<circle cx="0" cy="0" r="7.8802418784750285" fill="#9df871" opacity="0.9" transform="translate(1472.7508544921875 704.6423950195312)" style="opacity:0.9;animation-play-state:paused" ></circle>
<path id="path29" d="M 669.5075958150798 227.5203029765137
c 0 31.92112061805711 -7.810486959737377 9.168832517952575 -16.979319477689952 9.168832517952575
S 635.5489568596998 259.44142359457084 635.5489568596998 227.5203029765137
s 7.810486959737377 -9.168832517952575 16.979319477689952 -9.168832517952575
S 669.5075958150798 195.5991823584566 669.5075958150798 227.5203029765137
z" fill="none" stroke="none" style="animation-play-state:paused" ></path>


<circle cx="0" cy="0" r="5.384834132113616" fill="#9df871" opacity="0.9" transform="translate(669.3538208007812 234.2996063232422)" style="opacity:0.9;animation-play-state:paused" ></circle></g></svg>